<svg version="1.1" id="Layer_1" xmlns="http://www.w3.org/2000/svg" xmlns:xlink="http://www.w3.org/1999/xlink" x="0px" y="0px" viewBox="0 0 500 500" style="width: 166px;" xml:space="preserve" data-imageid="customer-service-1-24" imageName="Customer Service 1" class="illustrations_image">
<style type="text/css">
	.st0_customer-service-1-24{fill:#093F68;}
	.st1_customer-service-1-24{fill:#F56132;}
	.st2_customer-service-1-24{fill:#FFC9B0;}
	.st3_customer-service-1-24{fill:#725858;}
	.st4_customer-service-1-24{fill:#70CC40;}
	.st5_customer-service-1-24{fill:#68E1FD;}
	.st6_customer-service-1-24{fill:#FFFFFF;}
	.st7_customer-service-1-24{fill:#DFEAEF;}
</style>
<g id="character_customer-service-1-24">
	<path class="st0_customer-service-1-24" d="M322.9,164.4c-1,0-1.8-0.8-1.8-1.8v-11.7c0-42-34-76-76-76s-76,34-76,76v11.7c0,1-0.8,1.8-1.8,1.8&#10;&#9;&#9;c-1,0-1.8-0.8-1.8-1.8v-11.7c-0.5-44,34.8-80.1,78.8-80.6s80.1,34.8,80.6,78.8c0,0.6,0,1.2,0,1.8v11.7&#10;&#9;&#9;C324.7,163.6,323.9,164.4,322.9,164.4z"/>
	<path class="st1_customer-service-1-24" d="M317.5,405.6c0,6.9,12.3,6.9,27.5,6.9s27.5,0,27.5-6.9s-12.3-16.4-27.5-16.4S317.5,398.7,317.5,405.6z"/>
	<path class="st0_customer-service-1-24" d="M345.6,414.4h-0.9c-7.8,0-14.5,0-19.6-0.9c-2.4-0.4-9.5-1.7-9.5-7.8c0-8.2,13.5-18.2,29.3-18.2&#10;&#9;&#9;s29.3,10,29.3,18.2c0,6.2-7.1,7.4-9.5,7.8C359.9,414.4,353.2,414.4,345.6,414.4z M344.7,410.7h0.8c7.2,0,14,0,18.7-0.8&#10;&#9;&#9;c6.5-1.1,6.5-3.3,6.5-4.2c0-5.8-11.5-14.6-25.7-14.6s-25.7,8.8-25.7,14.6c0,0.9,0,3.1,6.5,4.2C330.5,410.7,337.5,410.7,344.7,410.7&#10;&#9;&#9;L344.7,410.7z"/>
	<path class="st2_customer-service-1-24" d="M316,382.4c0,0,9.2,3.1,11.3,6.8s3.8,19.5,8.9,18.1s0.7-17.1,4.8-16.8s32.3,14,31.6,6.8s-13.5-18.5-24.4-23.9&#10;&#9;&#9;s-29.6-7.9-29.6-7.9L316,382.4z"/>
	<path class="st0_customer-service-1-24" d="M335.5,409.2c-0.7,0-1.5-0.2-2.1-0.6c-2.9-1.7-4.3-6.4-6-13c-0.4-1.9-1-3.8-1.7-5.6c-1.2-2.3-6.9-4.9-10.2-6&#10;&#9;&#9;c-0.8-0.3-1.4-1.1-1.2-2l2.5-16.7c0.1-1,1-1.6,2-1.5c0.8,0.1,19.1,2.5,30.2,8c10.1,5.1,24.6,16.7,25.4,25.4&#10;&#9;&#9;c0.2,1.2-0.3,2.4-1.3,3.2c-3.3,2.5-12.1-0.6-24.2-5.2c-3-1.1-6.4-2.5-7.8-2.8c-0.3,1.7-0.4,3.5-0.4,5.2c0,4.9-0.1,10.4-4.1,11.4&#10;&#9;&#9;C336.3,409.1,335.9,409.2,335.5,409.2z M318,381.2c2.9,1.1,9,3.8,10.9,7.2c0.9,2.1,1.6,4.2,2,6.4c1,3.6,2.6,9.7,4.4,10.8&#10;&#9;&#9;c0.1,0.1,0.3,0.1,0.4,0.1c1.4-0.4,1.4-5.3,1.4-7.9c0-3.7,0.1-6.6,1.6-8.1c0.6-0.6,1.5-0.9,2.3-0.8c1.4,0.1,4.1,1.1,9.1,3&#10;&#9;&#9;c5.5,2.1,18,6.9,20.5,5.8c-0.7-6-12-16.8-23.4-22.5c-8.6-4.3-22.4-6.7-27.2-7.4L318,381.2z"/>
	<path class="st3_customer-service-1-24" d="M256.9,160.1c-26-3.2-59.4,3.5-78.5,22.4c-2.9,2.8-5.6,6-6.6,9.8c-3.3,12.6-0.3,24.8-11.4,34.3&#10;&#9;&#9;c-2.8,2.4-6.1,4.4-8.6,7.1c-8.4,8.8-6.6,25,3.4,31.8c-5.6,5.5-6.5,14.4-4.8,22.1c3.1,13.9,13.5,25.4,25.8,32.5s26.6,10.3,40.7,12.2&#10;&#9;&#9;c20.6,2.8,41.7,2.9,61.8-2.4s39-16.3,51.4-32.9c4-5.3,7.4-11.4,8.2-18c1.3-10.2-3.6-20.1-8.4-29.2c6.9-8.1,8.6-19.9,6.1-30.2&#10;&#9;&#9;s-8.6-19.6-16-27.4C303.3,174.5,281,163.2,256.9,160.1z"/>
	<path class="st0_customer-service-1-24" d="M243.5,336c-9,0-18-0.7-26.9-1.9c-17.8-2.4-30.6-6.2-41.3-12.5c-14-8.1-23.7-20.3-26.7-33.7&#10;&#9;&#9;c-2-8.7-0.5-16.8,3.9-22.2c-4.4-3.9-7.2-9.3-7.7-15.2c-0.9-6.6,1.2-13.2,5.7-18.1c1.7-1.7,3.5-3.2,5.5-4.6c1.2-0.9,2.2-1.7,3.3-2.6&#10;&#9;&#9;c7.2-6.1,8-13.4,8.9-21.9c0.3-3.9,0.9-7.7,1.8-11.5c1.1-4.3,4.1-7.7,7.1-10.7c20.3-20.1,54.8-26,80-22.9l0,0&#10;&#9;&#9;c24.5,3.2,47.2,14.7,64.2,32.7c8.6,9.2,14.1,18.7,16.4,28.2c2.7,11.4,0.5,22.8-5.8,30.9c4.3,8.3,9.3,18.5,8,29.2&#10;&#9;&#9;c-0.7,6-3.5,12.2-8.5,18.8c-11.9,15.9-30.5,27.8-52.4,33.6C267.4,334.6,255.5,336.1,243.5,336z M243.2,161.1&#10;&#9;&#9;c-27.9,0-51.4,10.7-63.6,22.7c-2.7,2.6-5.2,5.5-6.1,9c-0.8,3.6-1.4,7.3-1.8,10.9c-0.9,8.4-1.9,17.2-10.2,24.3&#10;&#9;&#9;c-1.1,1-2.3,1.9-3.5,2.7c-1.8,1.3-3.5,2.7-5,4.2c-7.2,8.4-6.3,21,2.1,28.2c0.3,0.3,0.6,0.5,1,0.8c0.8,0.6,1,1.7,0.5,2.5&#10;&#9;&#9;c-0.1,0.1-0.1,0.2-0.2,0.3c-4.6,4.4-6.2,12.1-4.3,20.4c2.8,12.4,11.9,23.8,25,31.4c10.4,6,22.7,9.7,40,12c23.2,3.1,43.2,2.4,61-2.4&#10;&#9;&#9;c21.1-5.6,39-17,50.4-32.2c4.6-6.1,7.1-11.7,7.8-17.1c1.1-9.3-3-18.2-8.2-28.1c-0.3-0.7-0.2-1.4,0.2-2c6.1-7.1,8.3-18.1,5.8-28.6&#10;&#9;&#9;c-2.1-8.9-7.3-17.8-15.5-26.5c-16.4-17.3-38.3-28.5-62-31.5C252.2,161.4,247.8,161.1,243.2,161.1z"/>
	<path class="st3_customer-service-1-24" d="M240.8,88.4h9.7c34.8,0,63,28.2,63,63v23.1l0,0H177.8l0,0v-23C177.7,116.7,205.9,88.5,240.8,88.4&#10;&#9;&#9;C240.8,88.4,240.8,88.4,240.8,88.4z"/>
	<path class="st0_customer-service-1-24" d="M313.6,176.4H177.8c-1,0-1.8-0.8-1.8-1.8v0v-19.6c0-37.7,30.6-68.2,68.3-68.3h2.9c37.7,0,68.2,30.6,68.3,68.3&#10;&#9;&#9;v19.6C315.4,175.6,314.6,176.4,313.6,176.4z M179.6,172.7h132.2v-17.8c0-35.7-29-64.6-64.6-64.7h-2.9c-35.7,0-64.6,29-64.7,64.7&#10;&#9;&#9;L179.6,172.7z"/>
	<polyline class="st2_customer-service-1-24" points="232.5,274.7 232.5,260.2 257.7,260.2 257.7,274.7 &#9;"/>
	<path class="st0_customer-service-1-24" d="M257.7,276.5c-1,0-1.8-0.8-1.8-1.8l0,0V262h-21.5v12.7c0,1-0.8,1.8-1.8,1.8s-1.8-0.8-1.8-1.8c0,0,0,0,0,0&#10;&#9;&#9;v-14.5c0-1,0.8-1.8,1.8-1.8c0,0,0,0,0,0h25.2c1,0,1.8,0.8,1.8,1.8c0,0,0,0,0,0v14.5C259.5,275.7,258.7,276.5,257.7,276.5&#10;&#9;&#9;C257.7,276.5,257.7,276.5,257.7,276.5z"/>
	<path class="st2_customer-service-1-24" d="M245.1,263.5L245.1,263.5c-37.2,0-67.3-22.1-67.3-62.9v-28.5c39.7,7.4,45.7-33.8,45.7-33.8&#10;&#9;&#9;c36,62.6,88.9,21.2,88.9,21.2v41.1C312.3,241.4,282.2,263.5,245.1,263.5z"/>
	<path class="st0_customer-service-1-24" d="M245.1,265.3c-41.3,0-69.1-26-69.1-64.7v-28.5c0-1,0.8-1.8,1.8-1.8c0.1,0,0.2,0,0.4,0&#10;&#9;&#9;c11,2.1,20.3,0.4,27.7-4.8c13.1-9.4,15.9-27.2,15.9-27.4c0.1-1,1.1-1.7,2.1-1.5c0.6,0.1,1,0.4,1.3,0.9&#10;&#9;&#9;c10.8,18.8,24.1,29.8,39.7,32.8c24.4,4.8,46.2-12,46.4-12.2c0.8-0.6,1.9-0.5,2.5,0.3c0.3,0.3,0.4,0.7,0.4,1.1v41.1&#10;&#9;&#9;C314.2,239.3,286.4,265.3,245.1,265.3z M179.6,174.2v26.4c0,42.2,32.9,61.1,65.5,61.1s65.5-18.9,65.5-61.1V163&#10;&#9;&#9;c-7,4.6-25.5,14.9-46.4,10.8c-15.5-3-28.9-13.3-39.8-30.7c-1.8,6.4-6.2,18-16.4,25.2C200.2,173.9,190.7,175.9,179.6,174.2&#10;&#9;&#9;L179.6,174.2z"/>
	<circle class="st0_customer-service-1-24" cx="211.7" cy="198.4" r="6.5"/>
	<circle class="st0_customer-service-1-24" cx="278.4" cy="198.4" r="6.5"/>
	<path class="st0_customer-service-1-24" d="M245.8,219.6c-2.1,0-4.2-0.2-6.3-0.5c-1-0.1-1.7-1-1.6-2c0.1-1,1-1.7,2-1.6c0.1,0,0.1,0,0.2,0&#10;&#9;&#9;c0.1,0,5.8,1,9.8,0.1c0.6-1.7-1.9-8.8-5.4-15.5c-0.5-0.9-0.1-2,0.8-2.5c0.9-0.5,2-0.1,2.5,0.8l0,0c1.8,3.4,7.3,14.7,5.5,18.8&#10;&#9;&#9;c-0.4,0.9-1.2,1.6-2.2,1.9C249.3,219.5,247.5,219.6,245.8,219.6z"/>
	<path class="st4_customer-service-1-24" d="M164.5,151.1h13.3l0,0v66.5l0,0h-13.2c-4.1,0-10.4-7.3-10.4-11.4v-44.7C154.1,157.4,160.4,151.1,164.5,151.1z"/>
	<path class="st0_customer-service-1-24" d="M177.8,219.4h-10.2c-8.5,0-15.3-6.9-15.3-15.3v-39.5c0-8.5,6.9-15.3,15.3-15.3h10.2c1,0,1.8,0.8,1.8,1.8&#10;&#9;&#9;c0,0,0,0,0,0v66.5C179.6,218.6,178.8,219.4,177.8,219.4L177.8,219.4z M167.6,152.9c-6.4,0-11.7,5.2-11.7,11.7v39.5&#10;&#9;&#9;c0,6.4,5.2,11.7,11.7,11.7h8.4v-62.9H167.6z"/>
	<path class="st4_customer-service-1-24" d="M325.6,217.6h-13.2l0,0v-66.5l0,0h11.2c4.1,0,12.4,7.3,12.4,11.4v43.7C336,210.3,329.7,217.6,325.6,217.6z"/>
	<path class="st0_customer-service-1-24" d="M322.5,219.4h-10.2c-1,0-1.8-0.8-1.8-1.8v0v-66.5c0-1,0.8-1.8,1.8-1.8c0,0,0,0,0,0h10.2&#10;&#9;&#9;c8.5,0,15.3,6.9,15.3,15.3v39.5C337.8,212.6,331,219.4,322.5,219.4z M314.2,215.8h8.4c6.4,0,11.7-5.2,11.7-11.7v-39.5&#10;&#9;&#9;c0-6.4-5.2-11.7-11.7-11.7h-8.4V215.8z"/>
	<path class="st0_customer-service-1-24" d="M245.7,244.6c-4.8,0.1-9.6-1-13.8-3.3c-3.9-2.1-7-5.3-8.9-9.3c-0.4-0.9,0.1-2,1-2.4c0.9-0.4,2,0.1,2.4,1&#10;&#9;&#9;c0,0,0,0,0,0c0.3,0.7,7.7,17.9,38.3,6.1c0.9-0.4,2,0.1,2.4,1.1c0.4,0.9-0.1,2-1.1,2.3C258.5,243.1,251.7,244.6,245.7,244.6z"/>
	<path class="st0_customer-service-1-24" d="M200.9,252.1c-8.8,0-20.7-1-26.7-5.9c-10.1-8.2-9.8-27.6-9.8-28.5c0-1,0.8-1.8,1.8-1.8h0.1&#10;&#9;&#9;c1,0,1.8,0.9,1.8,1.9c0,0,0,0,0,0c0,0.2-0.4,18.5,8.4,25.5s34.6,4.6,34.9,4.6c1-0.1,1.9,0.6,2,1.6s-0.6,1.9-1.6,2l0,0&#10;&#9;&#9;C211.2,251.7,206.8,252.1,200.9,252.1z"/>
	<path class="st4_customer-service-1-24" d="M195.6,242.8h23.1c1.9,0,3.4,1.5,3.4,3.4v5.6c0,1.9-1.5,3.4-3.4,3.4h-23.1c-1.9,0-3.4-1.5-3.4-3.4v-5.6&#10;&#9;&#9;C192.1,244.3,193.7,242.8,195.6,242.8z"/>
	<path class="st0_customer-service-1-24" d="M215.8,257.1h-17.4c-4.5-0.2-8-3.9-7.8-8.4c0.1-4.2,3.6-7.7,7.8-7.8h17.4c4.5,0.2,8,3.9,7.8,8.4&#10;&#9;&#9;C223.5,253.6,220.1,257,215.8,257.1z M198.4,244.6c-2.5,0.1-4.4,2.2-4.2,4.7c0.1,2.3,1.9,4.1,4.2,4.2h17.4c2.5-0.1,4.4-2.2,4.2-4.7&#10;&#9;&#9;c-0.1-2.3-1.9-4.1-4.2-4.2H198.4z"/>
	<path class="st5_customer-service-1-24 targetColor" d="M211.8,274.7h66.7c20.3,0,36.8,16.5,36.8,36.8l0,0v88.9l0,0H175l0,0v-88.9C175,291.2,191.5,274.7,211.8,274.7&#10;&#9;&#9;L211.8,274.7z" style="fill: rgb(0, 255, 255);"/>
	<path class="st0_customer-service-1-24" d="M315.2,402.2H175c-1,0-1.8-0.8-1.8-1.8v-86.2c0-22.8,18.5-41.3,41.4-41.4h61.2c22.8,0,41.3,18.5,41.4,41.4&#10;&#9;&#9;v86.2C317.1,401.4,316.2,402.2,315.2,402.2L315.2,402.2z M176.8,398.6h136.6v-84.4c0-20.8-16.9-37.7-37.7-37.7h-61.2&#10;&#9;&#9;c-20.8,0-37.7,16.9-37.7,37.7V398.6z"/>
	<path class="st0_customer-service-1-24" d="M196.2,185.3c-1.6,0-2.9-1.4-2.8-3c0-1.4,1.1-2.6,2.5-2.8l30.1-3.8c1.6-0.2,3,0.9,3.2,2.5&#10;&#9;&#9;c0.2,1.6-0.9,3-2.5,3.2l-30.1,3.8C196.4,185.3,196.3,185.3,196.2,185.3z"/>
	<path class="st0_customer-service-1-24" d="M293.9,185.3h-0.4l-30.1-3.8c-1.6-0.2-2.7-1.6-2.5-3.2c0.2-1.6,1.6-2.7,3.2-2.5l30.1,3.8&#10;&#9;&#9;c1.6,0.2,2.7,1.7,2.5,3.3C296.5,184.3,295.3,185.3,293.9,185.3L293.9,185.3z"/>
	<path class="st6_customer-service-1-24" d="M245.1,307.5c-15.3,0-37.3-32.8-37.3-32.8h74.6C282.4,274.7,260.4,307.5,245.1,307.5z"/>
	<path class="st0_customer-service-1-24" d="M245.1,309.3c-16,0-37.9-32.2-38.8-33.6c-0.4-0.6-0.4-1.3-0.1-1.9c0.3-0.6,0.9-1,1.6-1h74.6&#10;&#9;&#9;c1,0,1.8,0.8,1.8,1.8c0,0.4-0.1,0.7-0.3,1C283,277.1,261.2,309.3,245.1,309.3z M211.3,276.5c7.3,10.2,23.2,29.1,33.8,29.1&#10;&#9;&#9;s26.5-19,33.8-29.1H211.3z"/>
	<path class="st6_customer-service-1-24" d="M218,274.7c0,0,10.8,10.9,15.7,9.5s11.2-9.5,11.2-9.5H218z"/>
	<path class="st0_customer-service-1-24" d="M232.9,286.2c-5.8,0-14.4-8.4-16.2-10.2c-0.7-0.7-0.7-1.9,0-2.6c0.3-0.3,0.8-0.5,1.3-0.5h26.9&#10;&#9;&#9;c1,0,1.8,0.8,1.8,1.8c0,0.4-0.1,0.8-0.4,1.1c-0.7,0.9-6.8,8.7-12.1,10.2C233.8,286.1,233.3,286.2,232.9,286.2z M222.6,276.5&#10;&#9;&#9;c4.2,3.6,8.7,6.5,10.6,6c2.4-0.7,5.5-3.5,7.7-6H222.6z"/>
	<path class="st6_customer-service-1-24" d="M272.2,274.7c0,0-10.8,10.9-15.7,9.5s-11.2-9.5-11.2-9.5H272.2z"/>
	<path class="st0_customer-service-1-24" d="M257.3,286.2c-0.5,0-0.9-0.1-1.3-0.2c-5.4-1.5-11.5-9.3-12.1-10.2c-0.6-0.8-0.5-1.9,0.3-2.5&#10;&#9;&#9;c0.3-0.2,0.7-0.4,1.1-0.4h26.9c0.7,0,1.4,0.4,1.7,1.1c0.3,0.7,0.1,1.5-0.4,2C271.7,277.8,263.1,286.2,257.3,286.2z M249.2,276.5&#10;&#9;&#9;c2.2,2.4,5.3,5.3,7.7,6c1.9,0.5,6.4-2.4,10.6-6H249.2z M272.2,276.5L272.2,276.5z"/>
	<path class="st0_customer-service-1-24" d="M245.3,309.3c-1,0-1.8-0.8-1.8-1.8v-32.8c0-1,0.8-1.8,1.8-1.8s1.8,0.8,1.8,1.8c0,0,0,0,0,0v32.8&#10;&#9;&#9;C247.1,308.5,246.3,309.3,245.3,309.3z"/>
	<path class="st5_customer-service-1-24 targetColor" d="M160.1,267.4c0,0-46,87-29.1,105.4s37.9,6.1,44.1-7.2s8.9-88.2,8.9-88.2L160.1,267.4z" style="fill: rgb(0, 255, 255);"/>
	<path class="st0_customer-service-1-24" d="M150.2,383.9c-5.9,0-13.3-2.1-20.5-9.9c-17.6-19.1,26.9-103.9,28.8-107.5c0.4-0.8,1.4-1.2,2.3-0.8l23.9,9.9&#10;&#9;&#9;c0.7,0.3,1.2,1,1.1,1.8c-0.1,3.1-2.8,75.4-9.1,88.9c-3.4,7.4-11.7,15.6-22.7,17.3C152.8,383.8,151.5,383.9,150.2,383.9z M161,269.7&#10;&#9;&#9;c-13,25-41.5,87.8-28.6,101.9c6.2,6.7,13.5,9.6,21.1,8.5c8.2-1.3,16.4-7.5,19.9-15.2c5.5-11.9,8.3-76.4,8.7-86.3L161,269.7z"/>
	<path class="st2_customer-service-1-24" d="M174.5,233.9c0,0,30.4-3.1,33.1,3.8s-6.8,8.6-18.1,7.2c0,0,9.2,5.1,9.2,14c0,8.9-14.7,18.5-14.7,18.5&#10;&#9;&#9;l-23.9-9.9C160.1,267.4,160.5,241.8,174.5,233.9z"/>
	<path class="st0_customer-service-1-24" d="M184.1,279.1c-0.2,0-0.5,0-0.7-0.1l-23.9-9.9c-0.7-0.3-1.1-1-1.1-1.7c0-1.1,0.5-26.8,15.3-35&#10;&#9;&#9;c0.2-0.1,0.5-0.2,0.7-0.2c7.4-0.8,32-2.6,35,4.9c1.2,3,0.4,5.1-0.6,6.3c-2.5,3.2-8.2,3.9-13.5,3.8c3.2,3.1,5.1,7.3,5.3,11.8&#10;&#9;&#9;c0,9.8-14.9,19.6-15.5,20C184.7,279.1,184.4,279.2,184.1,279.1z M162,266.2l21.8,9c4.3-3,13.1-10.3,13.1-16.4&#10;&#9;&#9;c0-7.7-8.2-12.4-8.3-12.4c-0.8-0.4-1.1-1.3-0.9-2.1c0.3-0.8,1.1-1.4,2-1.2c9.9,1.2,14.9-0.3,16.1-2c0.3-0.4,0.7-1.2,0.1-2.7&#10;&#9;&#9;c-1.4-3.4-17-4-30.9-2.7C164.1,242.2,162.3,261.2,162,266.2z"/>
</g>
<g id="device_customer-service-1-24">
	<path class="st6_customer-service-1-24" d="M313.6,427H171.1c-6.9,0-12.6-5.3-13.1-12.2l-6.4-82c-0.6-7.2,4.8-13.6,12.1-14.1c0.3,0,0.7,0,1,0H320&#10;&#9;&#9;c7.3,0,13.2,5.9,13.2,13.2c0,0.3,0,0.7,0,1l-6.4,82C326.3,421.7,320.5,427,313.6,427z"/>
	<path class="st0_customer-service-1-24" d="M313.6,428.8H171.1c-7.8,0-14.3-6-14.9-13.8l-6.4-82c-0.6-8.3,5.5-15.5,13.8-16.1c0.4,0,0.8,0,1.1,0H320&#10;&#9;&#9;c8.3,0,15,6.7,15,15c0,0.4,0,0.8,0,1.1l-6.4,82C327.9,422.8,321.4,428.8,313.6,428.8z M164.8,320.5c-6.3,0-11.4,5.1-11.4,11.4&#10;&#9;&#9;c0,0.3,0,0.6,0,0.9l6.4,82c0.5,5.9,5.4,10.4,11.3,10.5h142.5c6,0,10.9-4.6,11.4-10.5l6.4-82c0.5-6.2-4.2-11.7-10.5-12.2&#10;&#9;&#9;c-0.3,0-0.6,0-0.9,0H164.8z"/>
	<path class="st7_customer-service-1-24" d="M242.4,387.7c-8.2,0-14.9-6.7-14.9-14.9c0-8.2,6.7-14.9,14.9-14.9c8.2,0,14.9,6.7,14.9,14.9&#10;&#9;&#9;C257.3,381,250.6,387.7,242.4,387.7z M242.4,361.6c-6.2,0-11.2,5-11.2,11.2s5,11.2,11.2,11.2s11.2-5,11.2-11.2l0,0&#10;&#9;&#9;C253.6,366.6,248.6,361.6,242.4,361.6z"/>
</g>
</svg>